<?xml version="1.0" standalone="no"?>
<!DOCTYPE svg PUBLIC "-//W3C//DTD SVG 20010904//EN"
 "http://www.w3.org/TR/2001/REC-SVG-20010904/DTD/svg10.dtd">
<svg version="1.0" xmlns="http://www.w3.org/2000/svg"
 width="548.000000pt" height="92.000000pt" viewBox="0 0 548.000000 92.000000"
 preserveAspectRatio="xMidYMid meet">

<g transform="translate(0.000000,92.000000) scale(0.100000,-0.100000)"
fill="#000000" stroke="none">
<path d="M270 766 l0 -36 -135 0 -135 0 0 -55 0 -55 135 0 135 0 0 55 0 55
185 0 c169 0 185 -2 194 -18 10 -19 7 -79 -5 -91 -3 -3 -89 -7 -190 -9 l-184
-3 0 -115 0 -114 50 0 50 0 0 85 0 85 164 0 c211 0 211 0 211 124 0 126 12
120 -255 124 l-220 3 0 -35z"/>
<path d="M900 766 l0 -36 188 -2 187 -3 0 -55 0 -55 -187 -3 -188 -2 0 -116 0
-115 48 3 47 3 3 78 3 77 49 0 c48 0 53 -3 137 -80 l88 -79 68 -1 c37 0 67 2
67 4 0 2 -43 37 -95 77 -88 68 -94 74 -68 77 116 11 123 18 123 131 0 133 14
125 -249 129 l-221 3 0 -35z"/>
<path d="M1580 780 c-11 -11 -20 -27 -20 -35 0 -13 31 -15 220 -15 l221 0 -3
-132 -3 -133 -170 0 -170 0 -3 78 -3 77 -44 0 -45 0 0 -93 c0 -141 -18 -132
265 -132 223 0 237 1 251 19 11 15 14 58 14 187 0 162 -1 168 -22 183 -19 13
-60 16 -245 16 -210 0 -224 -1 -243 -20z"/>
<path d="M2323 793 c-21 -4 -53 -38 -53 -55 0 -5 86 -8 190 -8 l190 0 0 -24
c0 -22 1 -23 45 -13 44 10 46 12 39 41 -12 59 -18 61 -212 62 -97 1 -187 0
-199 -3z"/>
<path d="M2870 765 l0 -35 100 0 100 0 0 -175 0 -175 50 0 50 0 0 175 0 175
105 0 105 0 0 35 0 35 -255 0 -255 0 0 -35z"/>
<path d="M3510 765 l0 -35 225 0 225 0 0 35 0 35 -225 0 -225 0 0 -35z"/>
<path d="M4120 765 l0 -35 188 -2 187 -3 3 -48 c3 -43 1 -48 -23 -57 -15 -6
-100 -10 -191 -10 l-164 0 0 -115 0 -115 50 0 50 0 0 85 0 85 164 0 c212 0
208 -2 204 130 -3 89 -4 95 -28 107 -18 9 -86 13 -232 13 l-208 0 0 -35z"/>
<path d="M2270 624 c0 -8 11 -26 25 -39 24 -25 27 -25 190 -25 l165 0 0 -50 0
-50 -155 0 -155 0 0 24 c0 23 -2 23 -42 14 -23 -5 -44 -11 -46 -13 -2 -2 0
-21 5 -42 13 -57 47 -65 266 -61 174 3 179 4 198 27 15 18 19 39 19 102 0 102
-14 119 -97 119 -32 0 -129 2 -215 5 -138 4 -158 3 -158 -11z"/>
<path d="M3510 505 l0 -125 230 0 230 0 0 40 0 40 -181 0 -180 0 3 53 3 52 85
2 c47 1 93 2 102 2 12 1 16 9 16 31 l-1 30 -154 0 -153 0 0 -125z"/>
<path d="M4073 225 c0 -54 1 -61 6 -30 5 31 10 40 26 40 16 0 21 -9 26 -40 l6
-40 1 35 c2 45 -10 64 -36 58 -17 -5 -22 0 -25 21 -2 14 -4 -5 -4 -44z"/>
<path d="M4579 268 c-2 -13 -1 -43 2 -68 l6 -45 1 43 c1 26 7 42 15 42 8 0 8
3 -2 9 -8 5 -11 16 -8 25 4 9 3 16 -2 16 -5 0 -10 -10 -12 -22z"/>
<path d="M2589 265 c-2 -11 -2 -40 2 -65 l6 -45 1 43 c1 26 7 42 15 42 8 0 9
3 1 8 -6 4 -13 14 -16 22 -3 11 -6 9 -9 -5z"/>
<path d="M3449 266 c-8 -41 3 -105 19 -111 14 -5 15 -4 5 6 -7 7 -13 28 -13
46 0 20 5 33 13 33 8 0 9 3 1 8 -6 4 -13 14 -16 22 -4 12 -6 11 -9 -4z"/>
<path d="M3921 268 c-1 -10 -7 -18 -13 -18 -10 0 -10 -2 -1 -8 6 -4 13 -25 15
-46 2 -22 9 -41 16 -42 7 -1 8 0 2 3 -15 7 -13 83 3 83 8 0 9 3 1 8 -6 4 -14
14 -17 22 -4 12 -6 11 -6 -2z"/>
<path d="M4921 268 c0 -9 -7 -19 -13 -21 -10 -4 -10 -6 0 -6 7 -1 12 -16 12
-40 0 -22 3 -42 8 -45 4 -2 6 14 4 36 -3 27 0 43 9 49 9 6 10 9 2 9 -6 0 -14
8 -16 18 -4 15 -5 15 -6 0z"/>
<path d="M2263 205 c0 -27 2 -38 4 -22 2 15 2 37 0 50 -2 12 -4 0 -4 -28z"/>
<path d="M2400 202 l5 -47 3 39 c2 21 0 42 -5 47 -4 4 -6 -13 -3 -39z"/>
<path d="M2432 243 c12 -3 18 -17 21 -46 l4 -42 1 48 c2 43 0 47 -20 46 -17
-1 -18 -3 -6 -6z"/>
<path d="M2742 238 c-20 -20 -12 -78 11 -78 7 0 7 4 -1 12 -20 20 -14 28 19
28 26 0 30 3 27 22 -2 12 -9 23 -16 24 -7 1 -8 0 -2 -3 20 -10 10 -33 -15 -33
-27 0 -32 9 -13 28 7 7 10 12 7 12 -3 0 -10 -5 -17 -12z"/>
<path d="M2923 234 c-3 -8 -1 -20 5 -26 8 -8 9 -15 1 -25 -8 -9 -8 -13 0 -13
6 0 11 3 11 8 0 4 10 12 23 17 12 6 22 17 22 25 0 8 5 18 10 22 6 4 -7 8 -28
8 -25 0 -40 -5 -44 -16z m47 -15 c0 -14 -5 -19 -17 -17 -26 5 -29 38 -4 38 15
0 21 -6 21 -21z"/>
<path d="M3112 200 c1 -40 2 -41 5 -10 2 19 11 40 20 47 13 10 13 12 -6 10
-18 -1 -21 -7 -19 -47z"/>
<path d="M3305 240 c3 -5 8 -10 11 -10 2 0 4 5 4 10 0 6 -5 10 -11 10 -5 0 -7
-4 -4 -10z"/>
<path d="M3599 229 c-13 -25 2 -70 23 -68 10 0 10 2 1 6 -22 8 -14 33 10 33
13 0 27 3 30 6 9 10 -12 44 -26 43 -9 0 -9 -2 1 -6 20 -8 14 -33 -9 -33 -16 0
-20 5 -16 20 7 26 1 25 -14 -1z"/>
<path d="M4262 238 c-16 -16 -15 -40 4 -64 14 -18 15 -18 4 4 -10 20 -8 22 19
22 37 0 49 17 28 38 -15 14 -15 13 -10 -6 4 -18 1 -22 -17 -22 -17 0 -21 4
-17 20 6 23 5 24 -11 8z"/>
<path d="M4722 209 c-2 -35 2 -48 14 -53 13 -5 14 -3 6 6 -6 7 -12 31 -15 53
l-4 40 -1 -46z"/>
<path d="M4780 217 c0 -18 -5 -38 -12 -45 -9 -9 -8 -12 5 -12 13 0 17 9 17 45
0 25 -2 45 -5 45 -3 0 -5 -15 -5 -33z"/>
<path d="M5060 214 c0 -39 14 -64 35 -64 5 0 4 4 -3 9 -8 4 -15 25 -17 46 -5
51 -15 57 -15 9z"/>
<path d="M5119 208 c-3 -30 0 -48 6 -48 7 0 9 15 7 38 -6 58 -9 61 -13 10z"/>
<path d="M5262 200 c1 -40 2 -41 5 -10 2 19 11 40 20 47 13 10 13 12 -6 10
-18 -1 -21 -7 -19 -47z"/>
<path d="M5410 231 c-13 -26 -13 -33 5 -57 14 -18 14 -18 8 4 -4 18 -1 22 20
22 33 0 44 18 23 36 -9 8 -11 9 -6 2 16 -20 12 -28 -16 -28 -21 0 -25 4 -21
20 7 25 1 26 -13 1z"/>
<path d="M3308 191 c-3 -19 0 -32 8 -35 10 -4 12 3 7 27 -8 42 -10 43 -15 8z"/>
<path d="M3267 203 c-13 -12 -7 -41 9 -47 14 -5 15 -4 4 9 -7 8 -10 22 -6 30
6 16 3 19 -7 8z"/>
<path d="M2968 163 c6 -2 12 -11 12 -19 0 -16 -46 -20 -53 -4 -3 6 -4 5 -3 -2
2 -7 16 -13 32 -13 22 0 30 5 32 23 3 16 -1 22 -15 21 -10 0 -13 -3 -5 -6z"/>
</g>
</svg>
