<?xml version="1.0" standalone="no"?>
<!DOCTYPE svg PUBLIC "-//W3C//DTD SVG 20010904//EN"
 "http://www.w3.org/TR/2001/REC-SVG-20010904/DTD/svg10.dtd">
<svg version="1.0" xmlns="http://www.w3.org/2000/svg"
 width="190.000000pt" height="190.000000pt" viewBox="0 0 190.000000 190.000000"
 preserveAspectRatio="xMidYMid meet">

<g transform="translate(0.000000,190.000000) scale(0.100000,-0.100000)"
fill="#000000" stroke="none">
<path d="M550 1441 l0 -389 108 -61 c60 -34 111 -61 114 -61 8 0 218 121 218
125 0 2 -49 32 -110 66 l-110 63 0 128 c0 70 3 128 8 128 4 0 41 -20 82 -45
41 -25 79 -45 83 -45 4 0 6 57 5 127 l-3 126 -170 99 c-93 54 -182 105 -197
114 l-28 15 0 -390z"/>
<path d="M1010 1433 l0 -128 94 -53 c51 -29 102 -62 112 -73 39 -43 20 -59
-311 -250 -171 -98 -320 -190 -332 -204 -23 -26 -23 -29 -23 -329 0 -291 1
-304 21 -329 11 -15 37 -32 58 -38 32 -9 44 -8 75 6 20 10 42 27 49 39 8 14
14 101 17 271 l5 249 280 161 c178 103 295 177 322 203 103 105 97 293 -13
392 -34 31 -331 210 -348 210 -3 0 -6 -57 -6 -127z"/>
<path d="M1240 790 c-57 -33 -106 -62 -108 -65 -2 -2 17 -17 42 -32 48 -29 67
-63 49 -91 -5 -9 -82 -58 -171 -110 l-162 -94 0 -124 c0 -68 3 -124 7 -124 18
0 448 257 475 284 17 17 42 55 56 85 44 97 20 232 -55 303 l-29 28 -104 -60z"/>
</g>
</svg>
